<?xml version="1.0" standalone="no"?><!DOCTYPE svg PUBLIC "-//W3C//DTD SVG 1.1//EN" "http://www.w3.org/Graphics/SVG/1.1/DTD/svg11.dtd"><svg class="icon" width="48px" height="48.00px" viewBox="0 0 1024 1024" version="1.1" xmlns="http://www.w3.org/2000/svg"><path d="M511.925299 1023.808642c-282.71699 0-511.903809-229.187843-511.903809-511.905856 0-282.715967 229.186819-511.902786 511.903809-511.902786 282.715967 0 511.903809 229.186819 511.903809 511.902786C1023.829108 794.619776 794.641265 1023.808642 511.925299 1023.808642zM511.925299 22.750143c-270.151813 0-489.153666 219.001853-489.153666 489.152643 0 270.151813 219.001853 489.153666 489.153666 489.153666 270.15079 0 489.152643-219.001853 489.152643-489.153666C1001.077941 241.751996 782.076088 22.750143 511.925299 22.750143zM739.437989 591.591733c-50.260707 0-91.004667-37.945217-91.004667-84.765569 0-46.808072 91.004667-188.366112 91.004667-188.366112s91.004667 141.55804 91.004667 188.366112C830.442656 553.646516 789.698696 591.591733 739.437989 591.591733zM739.437989 352.597547c0 0-68.252477 112.066355-68.252477 149.123342 0 37.066197 30.55797 67.106374 68.252477 67.106374 37.69553 0 68.254523-30.040177 68.254523-67.106374C807.691489 464.663902 739.437989 352.597547 739.437989 352.597547zM511.925299 784.977161c-50.260707 0-91.004667-37.945217-91.004667-84.765569 0-46.808072 91.004667-188.366112 91.004667-188.366112s91.004667 141.55804 91.004667 188.366112C602.929965 747.031944 562.186006 784.977161 511.925299 784.977161zM511.925299 545.985022c0 0-68.254523 112.066355-68.254523 149.123342 0 37.065174 30.558993 67.104327 68.254523 67.104327s68.254523-30.040177 68.254523-67.104327C580.179822 658.051377 511.925299 545.985022 511.925299 545.985022zM352.666108 489.210971c-50.260707 0-91.004667-37.94624-91.004667-84.765569 0-46.808072 91.004667-188.366112 91.004667-188.366112s91.004667 141.55804 91.004667 188.366112C443.670775 451.263707 402.926816 489.210971 352.666108 489.210971zM352.666108 250.218832c0 0-68.254523 112.064308-68.254523 149.122319 0 37.066197 30.558993 67.106374 68.254523 67.106374s68.254523-30.040177 68.254523-67.106374C420.920632 362.28314 352.666108 250.218832 352.666108 250.218832z" fill="#ffffff" /></svg>