<?xml version="1.0" standalone="no"?><!DOCTYPE svg PUBLIC "-//W3C//DTD SVG 1.1//EN" "http://www.w3.org/Graphics/SVG/1.1/DTD/svg11.dtd"><svg class="icon" width="48px" height="48.00px" viewBox="0 0 1024 1024" version="1.1" xmlns="http://www.w3.org/2000/svg"><path d="M837.052191 637.487016c0.007163-0.89744 0.032746-1.791809 0.032746-2.690272 0-56.678884-15.352663-112.189152-44.398186-160.53116l-0.100284 0.060375c-8.446369-16.197914-82.671884-155.954935-246.682285-386.361535-0.524956-0.747014-1.090844-1.471514-1.702782-2.166339-0.004093-0.005117-0.008186-0.00921-0.01228-0.014326-0.202615-0.229221-0.413416-0.453325-0.624217-0.677429-0.100284-0.106424-0.198521-0.214894-0.299829-0.319272-0.101307-0.104377-0.208754-0.203638-0.312108-0.305969-0.218988-0.216941-0.437975-0.432859-0.664126-0.639566-0.004093-0.00307-0.008186-0.007163-0.011256-0.010233-1.287319-1.183965-2.677992-2.215458-4.14439-3.094478-0.051165-0.030699-0.103354-0.059352-0.154519-0.090051-0.295735-0.173962-0.593518-0.343831-0.895393-0.506537-0.12996-0.069585-0.260943-0.1361-0.390903-0.202615-0.222057-0.113587-0.444115-0.227174-0.668219-0.334621-0.203638-0.097214-0.408299-0.189312-0.613984-0.281409-0.153496-0.068562-0.306992-0.137123-0.462534-0.202615-0.265036-0.112564-0.532119-0.217964-0.799202-0.321318-0.099261-0.037862-0.198521-0.076748-0.297782-0.113587-0.312108-0.115634-0.626263-0.224104-0.942465-0.326435-0.061398-0.019443-0.121773-0.039909-0.183172-0.059352-0.341784-0.10847-0.684592-0.208754-1.028423-0.302899-0.045025-0.01228-0.090051-0.024559-0.135076-0.036839-0.353041-0.094144-0.707105-0.180102-1.062192-0.257873-0.045025-0.010233-0.090051-0.019443-0.134053-0.029676-0.346901-0.074701-0.694825-0.141216-1.043772-0.201591-0.064468-0.011256-0.127913-0.021489-0.192382-0.032746-0.324388-0.053212-0.648776-0.099261-0.973164-0.140193-0.099261-0.01228-0.198521-0.024559-0.297782-0.035816-0.285502-0.031722-0.572028-0.059352-0.858554-0.081864-0.146333-0.011256-0.293689-0.021489-0.441045-0.030699-0.236384-0.014326-0.472767-0.025583-0.709151-0.033769-0.202615-0.007163-0.404206-0.011256-0.606821-0.013303-0.181125-0.002047-0.36225-0.002047-0.542352 0-0.25685 0.00307-0.512676 0.00921-0.769526 0.019443-0.127913 0.005117-0.255827 0.011256-0.38374 0.01842-0.305969 0.016373-0.610914 0.038886-0.916882 0.067538-0.080841 0.007163-0.160659 0.01535-0.2415 0.023536-0.343831 0.034792-0.687662 0.076748-1.030469 0.124843-0.046049 0.007163-0.093121 0.013303-0.13917 0.020466-0.367367 0.054235-0.733711 0.116657-1.100054 0.187265-0.027629 0.005117-0.055259 0.011256-0.083911 0.016373-0.373507 0.073678-0.74599 0.154519-1.11745 0.245593-0.028653 0.007163-0.057305 0.014326-0.085958 0.021489-0.361227 0.089028-0.720408 0.186242-1.078565 0.291642-0.049119 0.014326-0.098237 0.029676-0.147356 0.044002-0.329505 0.099261-0.657986 0.204661-0.985444 0.317225-0.088004 0.030699-0.176009 0.062422-0.264013 0.094144-0.281409 0.101307-0.561795 0.204661-0.840134 0.316202-0.146333 0.058328-0.290619 0.119727-0.435928 0.180102-0.215918 0.091074-0.431835 0.182149-0.64673 0.279363-0.217964 0.098237-0.433882 0.202615-0.649799 0.306992-0.140193 0.068562-0.281409 0.1361-0.420579 0.206708-0.297782 0.151449-0.592494 0.311085-0.884137 0.474814-0.058328 0.032746-0.11768 0.064468-0.176009 0.097214-1.486864 0.847298-2.901073 1.849114-4.216022 3.00545-0.001023 0-0.001023 0.001023-0.002047 0.001023-0.23536 0.207731-0.465604 0.423649-0.694825 0.64059-0.100284 0.094144-0.202615 0.186242-0.300852 0.282433-0.112564 0.110517-0.221034 0.226151-0.331551 0.338714-0.207731 0.209778-0.414439 0.420579-0.61296 0.636496-0.014326 0.01535-0.027629 0.031722-0.040932 0.046049-0.611937 0.667196-1.181919 1.363044-1.711991 2.082428-168.906921 226.50371-237.288335 366.026394-247.097748 386.79337l-0.026606-0.01535c-29.045523 48.344055-44.399209 103.854323-44.399209 160.532183 0 83.367733 32.465412 161.744801 91.413989 220.693378 58.9496 58.9496 137.326669 91.415013 220.693378 91.415013 83.367733 0 161.744801-32.465412 220.694401-91.413989 56.338123-56.338123 88.462774-130.425492 91.200118-209.649857 0.1361-2.336208 0.213871-4.688789 0.213871-7.058766C837.084936 638.347616 837.07368 637.916804 837.052191 637.487016zM524.521175 146.351206c122.932844 175.104063 199.298092 306.174238 223.299739 352.788905 0.661056 1.285273 1.426489 2.481518 2.26253 3.604084 23.448038 39.884382 35.837206 85.484953 35.837206 132.052548 0 2.731204-0.056282 5.454222-0.140193 8.172123-2.172479 35.921117-32.07144 64.482617-68.528769 64.482617-36.487006 0-66.407456-28.608571-68.536956-64.571644 0.048095-1.363044 0.081864-2.728134 0.081864-4.098341 0-14.128789-11.453866-25.582655-25.582655-25.582655-0.035816 0-0.071631 0.00307-0.107447 0.00307-0.035816 0-0.071631-0.00307-0.107447-0.00307-14.128789 0-25.582655 11.453866-25.582655 25.582655 0 1.334391 0.029676 2.660596 0.073678 3.984754-1.050935 16.389272-8.549723 31.91385-21.406542 44.077891-13.84124 13.096273-32.432667 20.60734-51.007721 20.60734-18.599613 0-37.236066-7.520277-51.131541-20.630876-12.740162-12.020778-20.228717-27.303856-21.430078-43.448558 0.057305-1.523703 0.096191-3.052522 0.096191-4.590552 0-14.128789-11.453866-25.582655-25.582655-25.582655-0.048095 0-0.096191 0.00307-0.144286 0.004093-0.048095 0-0.095167-0.004093-0.144286-0.004093-14.128789 0-25.582655 11.453866-25.582655 25.582655 0 1.581008 0.041956 3.155876 0.106424 4.727675-2.439562 35.665291-32.214702 63.942311-68.487837 63.942311-37.864376 0-68.668962-30.80561-68.668962-68.668962 0-0.479931-0.01535-0.955768-0.041956-1.428535-0.008186-0.852414-0.030699-1.702782-0.030699-2.556219 0-46.535873 12.373819-92.107791 35.792181-131.9758 1.086751-1.447978 2.040473-3.03001 2.824325-4.745071C303.268048 496.726132 363.829356 365.863688 524.521175 146.351206zM709.491956 819.312154c-49.285496 49.285496-114.813932 76.428693-184.514387 76.428693-69.700455 0-135.228891-27.142174-184.514387-76.428693-20.236903-20.236903-36.732599-43.217291-49.157583-68.096934 12.928451 4.783956 26.89965 7.401574 41.47153 7.401574 38.541805 0 72.886007-18.294668 94.822622-46.650483 3.435239 4.208858 7.17747 8.243755 11.232832 12.068873 23.292496 21.977547 54.727439 34.58161 86.24527 34.58161 31.518854 0 62.926168-12.613272 86.171592-34.605146 4.03592-3.817955 7.761778-7.844665 11.181667-12.045337 21.935592 28.355815 56.280818 46.650483 94.822622 46.650483 14.537088 0 28.477588-2.604314 41.380456-7.367805C746.210229 776.11533 729.71965 799.083437 709.491956 819.312154z" fill="#ffffff" /></svg>