<?xml version="1.0" standalone="no"?><!DOCTYPE svg PUBLIC "-//W3C//DTD SVG 1.1//EN" "http://www.w3.org/Graphics/SVG/1.1/DTD/svg11.dtd"><svg class="icon" width="48px" height="48.00px" viewBox="0 0 1024 1024" version="1.1" xmlns="http://www.w3.org/2000/svg"><path d="M511.952979 1023.896979a505.462446 505.462446 0 0 1-198.72418-40.381232c-60.914463-25.881164-115.693372-62.891387-162.824501-110.022515-47.131128-47.131128-84.141351-101.902162-110.022514-162.8245a505.462446 505.462446 0 0 1-40.381233-198.72418c0-85.708713 24.227164-176.592083 68.223569-255.928957 4.891115-7.923448 14.956887-13.657316 23.998754-13.657316 1.8194 0 5.245543 0.275667 7.679287 2.095067 9.774353 7.332734 15.421582 22.352631 7.954953 34.797013l-0.275667 0.456819-0.252038 0.472571C67.412872 355.019318 47.17106 433.009363 47.17106 511.944552c0 256.283385 208.498533 464.781919 464.781919 464.781918s464.781919-208.498533 464.781919-464.781918-208.498533-464.781919-464.781919-464.781919c-78.943064 0-156.925233 20.241811-231.780554 60.166224l-0.464696 0.252039-0.448943 0.26779c-4.938372 2.961448-10.191791 4.52881-15.208925 4.52881-7.293353 0-13.342268-3.229238-17.532401-9.349039-3.922343-11.192068-3.709686-26.692412 9.498686-34.804889 79.328998-43.996404 170.212368-68.223568 255.928957-68.223568a505.430941 505.430941 0 0 1 198.72418 40.381232c60.906587 25.873288 115.693372 62.891387 162.824501 110.022515 47.123252 47.123252 84.141351 101.902162 110.022515 162.824501 26.794802 63.072539 40.381232 129.933526 40.381232 198.72418s-13.58643 135.659517-40.381232 198.72418c-25.881164 60.914463-62.891387 115.693372-110.022515 162.824501-47.131128 47.131128-101.910038 84.141351-162.824501 110.022514a505.525456 505.525456 0 0 1-198.716304 40.373356z" fill="#ffffff" /><path d="M535.250753 593.541892l-6.899544-3.126847V329.902144c0-10.900649-13.720325-20.107916-29.945279-20.107916-16.256459 0-29.98466 9.191515-29.98466 20.107916v260.560158l-6.954676 3.07959c-32.985489 14.767858-54.322091 47.989633-54.322091 84.519408 0 50.935328 40.932566 92.379847 91.222046 92.379847 50.289481 0 91.222046-41.46027 91.222047-92.379847 0.047257-36.537651-21.297221-69.751549-54.337843-84.519408z m93.490389-55.448386l-3.630924-3.497029V254.345842c0-27.417022-14.129887-53.975538-38.703603-72.839016-23.715212-18.170373-54.967938-28.157384-88.040066-28.157383-33.072127 0-64.33273 9.98701-87.992808 28.157383-24.613097 18.863478-38.703604 45.421995-38.703603 72.839016V534.635858l-3.630924 3.504906c-37.88448 36.159594-59.607015 87.189437-59.607015 139.967793 0 51.392148 19.76924 99.704704 55.653167 136.053327 35.891803 36.340746 83.590017 56.362024 134.336317 56.362024 50.738424 0 98.45239-20.021278 134.344193-56.362024 35.883927-36.348622 55.645291-84.661179 55.645291-136.053327-0.06301-52.817738-21.777669-103.847581-59.670025-140.015051z m-130.382469 300.996523c-87.685637 0-159.004548-72.232549-159.004548-161.020853 0-48.131404 20.99005-93.36437 57.645844-124.097268l5.592095-4.69421V254.345842c0-18.910735 10.947906-37.270137 30.063422-50.423376 17.997097-12.373496 41.342128-19.194278 65.695311-19.194278 24.353183 0 47.70609 6.805029 65.695311 19.194278 19.115516 13.113858 30.063422 31.512641 30.063422 50.423376v294.92398l5.584219 4.69421c36.616413 30.732898 57.645843 75.965864 57.645843 124.089392 0.031505 88.79618-71.303159 161.036605-158.980919 161.036605z m163.320701-564.455118h41.665051c6.726267 0 12.121458-4.457924 12.121459-9.987011 0-5.52121-5.442448-9.979134-12.121459-9.979134h-41.665051c-6.718391 0-12.121458 4.457924-12.121458 9.979134 0 5.529086 5.442448 9.98701 12.121458 9.987011z m41.665051 23.518307h-41.665051c-6.718391 0-12.121458 4.457924-12.121458 9.98701s5.442448 9.979134 12.121458 9.979134h41.665051c6.726267 0 12.121458-4.457924 12.121459-9.979134 0.047257-5.529086-5.395191-9.98701-12.121459-9.98701z m0 43.437194h-41.665051c-6.718391 0-12.121458 4.457924-12.121458 9.979134 0 5.529086 5.442448 9.98701 12.121458 9.987011h41.665051c6.726267 0 12.121458-4.457924 12.121459-9.987011 0.047257-5.52121-5.395191-9.979134-12.121459-9.979134z m0 43.429318h-41.665051c-6.718391 0-12.121458 4.457924-12.121458 9.979135s5.442448 9.98701 12.121458 9.98701h41.665051c6.726267 0 12.121458-4.457924 12.121459-9.98701 0.047257-5.560591-5.395191-9.979134-12.121459-9.979135z m0 43.389938h-41.665051c-6.718391 0-12.121458 4.457924-12.121458 9.979134s5.442448 9.979134 12.121458 9.979134h41.665051c6.726267 0 12.121458-4.457924 12.121459-9.979134 0.047257-5.52121-5.395191-9.979134-12.121459-9.979134z m0 43.429318h-41.665051c-6.718391 0-12.121458 4.457924-12.121458 9.98701 0 5.52121 5.442448 9.979134 12.121458 9.979135h41.665051c6.726267 0 12.121458-4.457924 12.121459-9.979135 0.047257-5.52121-5.395191-9.98701-12.121459-9.98701z" fill="#ffffff" /></svg>