<?xml version="1.0" standalone="no"?><!DOCTYPE svg PUBLIC "-//W3C//DTD SVG 1.1//EN" "http://www.w3.org/Graphics/SVG/1.1/DTD/svg11.dtd"><svg class="icon" width="48px" height="48.00px" viewBox="0 0 1024 1024" version="1.1" xmlns="http://www.w3.org/2000/svg"><path d="M512 0c-282.757922 0-511.978511 229.229798-511.978511 512s229.220588 512 511.978511 512 511.978511-229.229798 511.978511-512S794.757922 0 512 0zM661.247162 843.712891c-41.195238 41.195238-95.967702 63.881936-154.225547 63.881936s-113.029286-22.686698-154.224524-63.881936c-41.194214-41.195238-63.881936-95.967702-63.881936-154.225547 0-60.432371 24.772196-117.485785 68.432579-158.644183L357.347734 236.839103c0-33.248242 17.084097-65.252143 46.873564-87.803765 27.79402-21.041222 64.302515-32.630165 102.800317-32.630165 38.496779 0 75.004251 11.588943 102.799294 32.630165 29.78742 22.551622 46.873564 54.555523 46.873564 87.803765l0 294.003034c43.661406 41.158399 68.434625 98.212836 68.434625 158.645207C725.129098 747.745189 702.4424 802.517653 661.247162 843.712891zM720.633714 489.822908l-35.183314 0c-7.978718 0-14.449084-6.470365-14.449084-14.450107 0-7.980765 6.470365-14.45113 14.449084-14.45113l35.183314 0c7.980765 0 14.450107 6.470365 14.450107 14.45113C735.083821 483.352543 728.614479 489.822908 720.633714 489.822908zM720.633714 445.468724l-35.183314 0c-7.978718 0-14.449084-6.470365-14.449084-14.450107 0-7.980765 6.470365-14.45113 14.449084-14.45113l35.183314 0c7.980765 0 14.450107 6.469342 14.450107 14.45113C735.083821 438.998359 728.614479 445.468724 720.633714 445.468724zM720.633714 401.113517l-35.183314 0c-7.978718 0-14.449084-6.469342-14.449084-14.450107s6.470365-14.450107 14.449084-14.450107l35.183314 0c7.980765 0 14.450107 6.468318 14.450107 14.450107C735.083821 394.644175 728.614479 401.113517 720.633714 401.113517zM720.633714 356.757287l-35.183314 0c-7.978718 0-14.449084-6.469342-14.449084-14.449084 0-7.981788 6.470365-14.45113 14.449084-14.45113l35.183314 0c7.980765 0 14.450107 6.469342 14.450107 14.45113C735.083821 350.287945 728.614479 356.757287 720.633714 356.757287zM720.633714 312.403103l-35.183314 0c-7.978718 0-14.449084-6.469342-14.449084-14.449084 0-7.981788 6.470365-14.45113 14.449084-14.45113l35.183314 0c7.980765 0 14.450107 6.469342 14.450107 14.45113C735.083821 305.933761 728.614479 312.403103 720.633714 312.403103zM720.633714 268.047896l-35.183314 0c-7.978718 0-14.449084-6.469342-14.449084-14.450107 0-7.980765 6.470365-14.45113 14.449084-14.45113l35.183314 0c7.980765 0 14.450107 6.470365 14.450107 14.45113C735.083821 261.57753 728.614479 268.047896 720.633714 268.047896z" fill="#ffffff" /><path d="M608.66969 566.616922l-10.616802-8.79327L598.052888 236.839103c0-33.495882-41.687448-61.793368-91.031273-61.793368-49.345871 0-91.033319 28.29851-91.033319 61.793368l0 320.985572-10.615779 8.794293c-36.743856 30.436196-57.8168 75.221192-57.8168 122.869399 0 87.929632 71.536266 159.465898 159.465898 159.465898 87.930655 0 159.465898-71.536266 159.466921-159.466921C666.488537 641.839137 645.414569 597.056188 608.66969 566.616922zM507.022639 800.76166c-61.454654 0-111.273293-49.818639-111.273293-111.273293 0-45.445028 27.245528-84.519975 66.289776-101.797477L462.039121 317.557496c0-18.808368 20.139689-34.053584 44.982494-34.053584 24.841781 0 44.981471 15.245216 44.981471 34.053584l0 270.13237c39.045271 17.278525 66.291822 56.352449 66.291822 101.798501C618.294908 750.943021 568.477292 800.76166 507.022639 800.76166z" fill="#ffffff" /></svg>