<?xml version="1.0" standalone="no"?><!DOCTYPE svg PUBLIC "-//W3C//DTD SVG 1.1//EN" "http://www.w3.org/Graphics/SVG/1.1/DTD/svg11.dtd"><svg class="icon" width="48px" height="48.00px" viewBox="0 0 1024 1024" version="1.1" xmlns="http://www.w3.org/2000/svg"><path d="M841.728 220.16l-43.008 43.008c-69.12-78.848-170.496-125.44-276.992-125.44-205.824 0-374.272 168.448-374.272 374.272s168.448 374.272 374.272 374.272c133.12 0 258.56-71.168 324.096-187.392 5.632-9.216 2.048-20.48-7.68-26.112s-20.48-2.048-26.112 7.68c-59.904 104.96-172.032 168.448-291.84 168.448-185.344 0-336.896-151.552-336.896-336.896s151.552-336.896 336.896-336.896c97.28 0 188.928 43.008 250.88 114.176l-57.856 57.856c-5.632 5.632-2.048 16.896 7.68 16.896H839.68c11.264 0 18.944-7.68 18.944-18.944V225.792c0-7.68-9.728-11.264-16.896-5.632z" fill="#ffffff" /><path d="M535.04 307.712h25.6v257.024h-25.6z" fill="#ffffff" /><path d="M385.024 539.648h175.616v25.6H385.024z" fill="#ffffff" /></svg>