<?xml version="1.0" standalone="no"?><!DOCTYPE svg PUBLIC "-//W3C//DTD SVG 1.1//EN" "http://www.w3.org/Graphics/SVG/1.1/DTD/svg11.dtd"><svg class="icon" width="48px" height="48.00px" viewBox="0 0 1024 1024" version="1.1" xmlns="http://www.w3.org/2000/svg"><path d="M512 0C229.218 0 0 229.218 0 512s229.218 512 512 512 512-229.218 512-512S794.782 0 512 0zM512 944c-238.594 0-432-193.406-432-432S273.406 80 512 80s432 193.406 432 432S750.594 944 512 944z" fill="#ffffff" /><path d="M708.938 413.532c-32.624 0-59.094 26.468-59.094 59.094 0 6.938 1.438 13.468 3.624 19.688L275.688 492.314c-10.876 0-19.688 8.812-19.688 19.688s8.812 19.688 19.688 19.688l433.25 0c32.594 0 59.062-26.468 59.062-59.062C768 440 741.532 413.532 708.938 413.532z" fill="#ffffff" /><path d="M275.688 452.938 512 452.938c32.624 0 59.062-26.468 59.062-59.094 0-32.594-26.438-59.062-59.062-59.062s-59.062 26.468-59.062 59.062c0 6.938 1.438 13.5 3.594 19.688l-180.844 0c-10.876 0-19.688 8.812-19.688 19.688S264.812 452.938 275.688 452.938z" fill="#ffffff" /><path d="M590.75 571.062c-1.124 0-2.25 0.282-3.438 0.376-0.75-0.062-1.376-0.376-2.156-0.376L281.312 571.062c-14 0-25.312 8.844-25.312 19.718s11.312 19.688 25.312 19.688l254 0c-2.188 6.188-3.624 12.75-3.624 19.688 0 32.624 26.468 59.062 59.062 59.062 32.624 0 59.094-26.438 59.094-59.062S623.376 571.062 590.75 571.062z" fill="#ffffff" /></svg>