<?xml version="1.0" standalone="no"?><!DOCTYPE svg PUBLIC "-//W3C//DTD SVG 1.1//EN" "http://www.w3.org/Graphics/SVG/1.1/DTD/svg11.dtd"><svg class="icon" width="16px" height="16.00px" viewBox="0 0 1024 1024" version="1.1" xmlns="http://www.w3.org/2000/svg"><path d="M544.461705 587.075481c-2.811165 0-5.570163 0.21446-8.334958 0.423124l0-0.423124L359.707336 587.075481c-13.905121 0-25.17876 11.273639-25.17876 25.17876s11.273639 25.17876 25.17876 25.17876l92.872761 0c-0.028981 0.04637-0.057962 0.098536-0.086943 0.144905l89.157386 0c0.967968-0.04637 1.924344-0.144905 2.903904-0.144905s1.935936 0.098536 2.903904 0.144905l5.43685 0 0 0.515863c28.499992 4.063147 50.438667 28.540565 50.438667 58.205596 0 32.510973-26.314818 58.866364-58.779421 58.866364-14.420984 0-27.584189-5.239779-37.791325-13.87614-4.509456-6.804757-12.212626-11.296824-20.988096-11.296824-13.905121 0-25.17876 11.273639-25.17876 25.17876 0 8.601584 4.323977 16.171441 10.902681 20.715674l-0.892617 0.892617c19.423118 17.933491 45.326405 28.923115 73.855378 28.923115 60.321214 0 109.223884-48.943244 109.223884-109.310828C653.679793 636.018724 604.782919 587.075481 544.461705 587.075481zM888.791682 359.939185c-28.830376 0-54.977104 11.262047-74.498758 29.531718l0.701342 0.701342c-6.184562 4.607991-10.247709 11.911223-10.247709 20.2172 0 13.957287 11.314213 25.265703 25.265703 25.265703 8.827636 0 16.57138-4.538437 21.092428-11.39536 10.218728-8.555214 23.318175-13.777604 37.686993-13.777604 32.510973 0 58.866364 26.355392 58.866364 58.866364S921.302654 528.209117 888.791682 528.209117l-91.881608 0-34.006396 0c-13.905121 0-25.17876 11.273639-25.17876 25.17876 0 13.905121 11.273639 25.17876 25.17876 25.17876l125.888004 0c60.321214 0 109.223884-48.943244 109.223884-109.310828C998.015566 408.882429 949.112896 359.939185 888.791682 359.939185zM636.835991 275.894061c-28.818783 0-54.9829 11.204085-74.475573 29.467959l0.788285 0.788285c-6.143988 4.607991-10.178154 11.89963-10.178154 20.188219 0 13.957287 11.273639 25.265703 25.17876 25.265703 8.816044 0 16.542399-4.561622 21.040262-11.447526 10.207135-8.636361 23.323971-13.910917 37.733363-13.910917 32.458807 0 58.779421 26.355392 58.779421 58.866364 0 29.641846-21.892306 54.096079-50.35752 58.194003l0 0.672361L544.850051 443.978513 267.327254 443.978513 82.572886 443.978513c-13.905121 0-25.17876 11.314213-25.17876 25.265703s11.273639 25.265703 25.17876 25.265703l545.933944 0 0-0.423124c2.758999 0.208664 5.517997 0.423124 8.334958 0.423124 60.321214 0 109.223884-48.943244 109.223884-109.310828C746.059875 324.837304 697.157205 275.894061 636.835991 275.894061zM150.319052 351.610023l292.888564 0c9.604329 0 17.388646-7.784317 17.388646-17.388646l0-15.75991c0-9.604329-7.784317-17.388646-17.388646-17.388646L150.319052 301.072821c-9.604329 0-17.388646 7.784317-17.388646 17.388646l0 15.75991C132.930406 343.81991 140.714723 351.610023 150.319052 351.610023z" fill="#ffffff" /></svg>